<svg xmlns="http://www.w3.org/2000/svg" viewBox="0 0 64 64" role="img" aria-label="Texas LMFT CE Guide favicon">
  <defs>
    <linearGradient id="bg" x1="0" y1="0" x2="1" y2="1">
      <stop offset="0%" stop-color="#0f567b" />
      <stop offset="100%" stop-color="#184d6a" />
    </linearGradient>
  </defs>
  <rect width="64" height="64" rx="16" fill="url(#bg)" />
  <path
    d="M18 20h11c6.2 0 10 3.4 10 8.2 0 2.9-1.6 5.3-4.1 6.6 3.5 1.2 5.6 3.9 5.6 7.7 0 5.5-4.3 9.5-11.2 9.5H18z"
    fill="#f7efe4"
    opacity="0.96"
  />
  <circle cx="23" cy="28" r="3.2" fill="#e3a65f" />
  <circle cx="33" cy="36" r="3.2" fill="#e3a65f" />
  <circle cx="24" cy="44" r="3.2" fill="#e3a65f" />
  <path
    d="M23 28c4.8 0 5.7 4.7 10 8M33 36c-4.8 0-4.7 5-9 8"
    fill="none"
    stroke="#e3a65f"
    stroke-linecap="round"
    stroke-width="2.6"
  />
</svg>
